/* XPM */
static char *result[] = {
/* columns rows colors chars-per-pixel */
"32 32 48 1 ",
"  c #3A3C94",
". c #3D3F98",
"X c #3F419B",
"o c #40439D",
"O c #41449E",
"+ c #41449F",
"@ c #42459F",
"# c #4245A0",
"$ c #4346A1",
"% c #4447A2",
"& c #4447A3",
"* c #4548A3",
"= c #4548A4",
"- c #4549A4",
"; c #4649A5",
": c #474AA6",
"> c #474AA7",
", c #474BA7",
"< c #484BA7",
"1 c #484BA8",
"2 c #484CA8",
"3 c #494CA9",
"4 c #494CAA",
"5 c #494DAA",
"6 c #4A4DAA",
"7 c #4A4DAB",
"8 c #4A4EAB",
"9 c #4B4EAC",
"0 c #4B4FAC",
"q c #4C4FAD",
"w c #4C4FAE",
"e c #4C50AE",
"r c #4D50AE",
"t c #4E52B1",
"y c #4F52B1",
"u c #4F52B2",
"i c #4F53B2",
"p c #5053B3",
"a c #5154B4",
"s c #5155B5",
"d c #5255B6",
"f c #5256B6",
"g c #5458B9",
"h c #565ABB",
"j c #575BBD",
"k c #585CBE",
"l c #5B5FC2",
"z c #5F63C8",
/* pixels */
"89<@7p9f7:2oOwe@;-;+w-2:r;<84<&*",
"3>9>@k5$t5;;;>2>> 2>81*$;-;.wl>;",
"X;3w2>o;<+q<>w4&5;=;:;&1>128<wr&",
">;<8;p;r;+w;3f<lwq3e*;>-5;=;r18>",
"d9tf>,>;=33ry1:;8;1:=.:r23;e*;w<",
"Ot1r4-5qa;*43;>;twO>;9z305.>*3#=",
"%9:r>rr5.>f>f:2q3=yw:;2Orq;1w3h3",
"@g;rz;r59><55538=wl;wrr238f>2>;3",
"2;8;=O8w;t5;>rO<<.8>+384wt1;<@$3",
"w18w<,38fX2>il5;2>$f<,qw**;;;481",
"l6w&=8w11=<@3>X6-& =;85;1=k>;=:6",
";;>0>;29;w33t1r:;rq0e*;.>3r43<g;",
"16=;q;1432y1:18>1r=.>u=4;=>$3<8X",
"l=q<>.><843;g;rwO4;9>>>38;@;s;+w",
"3t4;td;=f>3:283=>twft598>>7>;8;8",
",j1<XO;><4s568>w>;w*4;;;<4-1i;;w",
"891><64j7X6rO8<.8>1>=6>37:6r>w&*",
"3z9-@kwi31i<5;2f$;9;1k55tzi;;>>>",
"1 322>1;e2443>>&124<221;<;><>p;&",
"r;58e@1gw+w4<<e@1p38;@;;;f4l3k5&",
"@3tf48<;23r:ew>wr<>f>,;2r7w-r.1;",
"5+>;4-5;5;2z;=>t4r;<4r@5e>1>3t;-",
"k::f:r<q1;<;>w181<:X<r6O,8i;q<7y",
"<*;=zpr758;3;;;9<w5;u;=555*3>=43",
"<o7*2@5$t>>;p>34Xf;e2pt4;>53<3*i",
"w18w2>f;<4;4k5&;w1gww,;;5eo-4a,7",
"2>w2;@;-7w-@>1548<;><r91>7p>38O$",
"r@>2>,5; 1w3t;-5+uf=;854>3;5l;58",
"<6rr4et,=i;q:>1;;>rw&1t4X831;4r<",
"o3r<>r@re*3>g;7,>319&o5;;et8;;;w",
">t4;;5r8Ou3<;23k$t;;<;;p>3$X2;;=",
"181<f8<;>o-z;r2>1uw*=O*>;4t5i8>w"
};
